<svg width="25" height="24" viewBox="0 0 25 24" fill="none" xmlns="http://www.w3.org/2000/svg">
<path d="M4.81268 19.4268C5.23709 19.8415 5.9529 19.8362 6.357 19.4321L12.3644 13.4247L18.3683 19.4303C18.7795 19.8415 19.4945 19.8477 19.9109 19.4251C20.3273 19.0007 20.3291 18.3016 19.9179 17.8888L13.914 11.8751L19.9179 5.87113C20.3291 5.46 20.3353 4.75298 19.9109 4.33658C19.4865 3.91217 18.7795 3.91041 18.3683 4.32955L12.3644 10.3335L6.357 4.32779C5.9529 3.91744 5.22908 3.9024 4.81268 4.33482C4.39803 4.75923 4.4033 5.46528 4.8074 5.86937L10.8148 11.8751L4.8074 17.8923C4.4033 18.2946 4.39002 19.0104 4.81268 19.4268Z" fill="#677489"/>
</svg>
