<svg width="25" height="24" viewBox="0 0 25 24" fill="none" xmlns="http://www.w3.org/2000/svg">
<path d="M10.1626 17.3241C10.4773 17.3241 10.6802 17.1247 10.6727 16.831L10.4439 9.00115C10.435 8.71018 10.2295 8.5169 9.92839 8.5169C9.61636 8.5169 9.41487 8.7163 9.42233 9.00861L9.64504 16.835C9.65386 17.1321 9.86072 17.3241 10.1626 17.3241ZM12.3625 17.3241C12.6718 17.3241 12.8896 17.1273 12.8896 16.8364V9.00593C12.8896 8.71496 12.6718 8.5169 12.3625 8.5169C12.0518 8.5169 11.8402 8.71496 11.8402 9.00593V16.8364C11.8402 17.1273 12.0518 17.3241 12.3625 17.3241ZM14.5672 17.3241C14.8642 17.3241 15.0698 17.1321 15.0786 16.835L15.3013 9.00861C15.3088 8.7163 15.1073 8.5169 14.7952 8.5169C14.4941 8.5169 14.2886 8.71018 14.2798 9.00727L14.0571 16.831C14.0496 17.1247 14.2524 17.3241 14.5672 17.3241ZM8.9696 6.43591H10.348V4.88472C10.348 4.498 10.6185 4.24991 11.0343 4.24991H13.6771C14.0929 4.24991 14.3635 4.498 14.3635 4.88472V6.43591H15.7418V4.81541C15.7418 3.67335 15.0129 3 13.7754 3H10.936C9.69852 3 8.9696 3.67335 8.9696 4.81541V6.43591ZM5.66095 7.24846H19.0688C19.4368 7.24846 19.7236 6.95615 19.7236 6.58811C19.7236 6.22276 19.4368 5.93657 19.0688 5.93657H5.66095C5.29903 5.93657 5 6.22276 5 6.58811C5 6.96227 5.29903 7.24846 5.66095 7.24846ZM8.93255 19.8526H15.7972C16.9405 19.8526 17.683 19.1527 17.7366 18.008L18.25 7.10522H16.8648L16.3738 17.7856C16.3588 18.2337 16.0632 18.5313 15.6374 18.5313H9.08013C8.66653 18.5313 8.37093 18.2263 8.34986 17.7856L7.8344 7.10522H6.47366L6.99317 18.0141C7.04813 19.1588 7.77705 19.8526 8.93255 19.8526Z" fill="#677489"/>
</svg>
