<svg width="25" height="24" viewBox="0 0 25 24" fill="none" xmlns="http://www.w3.org/2000/svg">
<path d="M7.85071 21H17.2013C19.0831 21 20.052 20.0151 20.052 18.1261V10.1621C20.052 8.94281 19.8951 8.38331 19.1312 7.60506L14.5205 2.92238C13.787 2.17292 13.1771 2 12.0818 2H7.85071C5.97768 2 5 2.99208 5 4.88109V18.1261C5 20.0223 5.97048 21 7.85071 21ZM7.988 19.2802C7.14075 19.2802 6.71976 18.8369 6.71976 18.0192V4.988C6.71976 4.17744 7.14075 3.71976 7.9952 3.71976H11.7371V8.53376C11.7371 9.78988 12.3501 10.3973 13.6006 10.3973H18.3322V18.0192C18.3322 18.8369 17.9113 19.2802 17.0584 19.2802H7.988ZM13.7633 8.88066C13.3996 8.88066 13.2537 8.72599 13.2537 8.36382V3.9587L18.0933 8.88066H13.7633Z" fill="#677489"/>
</svg>
