<svg width="238" height="48" viewBox="0 0 238 48" fill="none"
	xmlns="http://www.w3.org/2000/svg">
	<circle cx="22.8664" cy="22.8664" r="22.8664" fill="#111729"/>
	<path d="M15.6716 47.4476V33.9775C15.6716 25.4145 14.8876 22.3354 8.98321 22.3354H33.5074C37.7122 22.3354 39.8124 22.3354 41.1188 23.6446C42.4253 24.9538 42.4253 27.0584 42.4253 31.272V40.0977C33.5569 47.2983 27.7557 49.0596 15.6716 47.4476Z" fill="white"/>
	<path d="M37.6069 31.2371H24.8671M37.6069 37.3416H30.327M37.6069 43.4461H26.6871" stroke="#111729" stroke-width="2.20497" stroke-linecap="square"/>
	<path d="M68.0935 36.706H62.6377V10.6194H68.0935V36.706Z" fill="#111729"/>
	<path d="M77.6502 36.706H72.4293V10.6194H76.9818L89.158 27.6128H89.3025V10.6194H94.5235V36.706H90.0071L77.8128 19.6223H77.6502V36.706Z" fill="#111729"/>
	<path d="M112.553 36.706H105.977L97.2153 10.6194H103.321L109.283 31.0838H109.41L115.371 10.6194H121.315L112.553 36.706Z" fill="#111729"/>
	<path d="M135.388 10.1675C143.102 10.1675 147.962 15.3559 147.962 23.6718C147.962 31.9696 143.102 37.158 135.388 37.158C127.656 37.158 122.814 31.9696 122.814 23.6718C122.814 15.3559 127.656 10.1675 135.388 10.1675ZM135.388 14.7231C131.124 14.7231 128.378 18.1941 128.378 23.6718C128.378 29.1313 131.106 32.5842 135.388 32.5842C139.651 32.5842 142.379 29.1313 142.379 23.6718C142.379 18.1941 139.651 14.7231 135.388 14.7231Z" fill="#111729"/>
	<path d="M156.94 36.706H151.484V10.6194H156.94V36.706Z" fill="#111729"/>
	<path d="M172.802 37.158C165.214 37.158 160.463 32.0781 160.463 23.6537C160.463 15.2474 165.25 10.1675 172.802 10.1675C179.071 10.1675 183.84 14.1446 184.255 19.9838H178.944C178.438 16.784 175.981 14.687 172.802 14.687C168.683 14.687 166.027 18.1399 166.027 23.6356C166.027 29.2036 168.647 32.6385 172.82 32.6385C176.054 32.6385 178.384 30.7403 178.962 27.6489H184.273C183.659 33.4701 179.197 37.158 172.802 37.158Z" fill="#111729"/>
	<path d="M204.922 32.1865V36.706H187.652V10.6194H204.922V15.1209H193.108V21.412H204.254V25.6061H193.108V32.1865H204.922Z" fill="#111729"/>
	<path d="M214.317 36.706H208.861V10.6194H214.317V36.706Z" fill="#111729"/>
	<path d="M230.341 36.706H224.885V15.1209H217.352V10.6194H237.892V15.1209H230.341V36.706Z" fill="#111729"/>
</svg>
