<svg width="32" height="32" viewBox="0 0 32 32" fill="none" xmlns="http://www.w3.org/2000/svg">
<rect width="32" height="32" rx="8" fill="#E4EEE8"/>
<path d="M6 16C6 12.229 6 10.343 7.172 9.172C8.344 8.001 10.229 8 14 8H18C21.771 8 23.657 8 24.828 9.172C25.999 10.344 26 12.229 26 16V18C26 21.771 26 23.657 24.828 24.828C23.656 25.999 21.771 26 18 26H14C10.229 26 8.343 26 7.172 24.828C6.001 23.656 6 21.771 6 18V16Z" stroke="#429767" stroke-width="1.5"/>
<path d="M11 8V6.5M21 8V6.5M6.5 13H25.5" stroke="#429767" stroke-width="1.5" stroke-linecap="round"/>
<path d="M22 21C22 21.2652 21.8946 21.5196 21.7071 21.7071C21.5196 21.8946 21.2652 22 21 22C20.7348 22 20.4804 21.8946 20.2929 21.7071C20.1054 21.5196 20 21.2652 20 21C20 20.7348 20.1054 20.4804 20.2929 20.2929C20.4804 20.1054 20.7348 20 21 20C21.2652 20 21.5196 20.1054 21.7071 20.2929C21.8946 20.4804 22 20.7348 22 21ZM22 17C22 17.2652 21.8946 17.5196 21.7071 17.7071C21.5196 17.8946 21.2652 18 21 18C20.7348 18 20.4804 17.8946 20.2929 17.7071C20.1054 17.5196 20 17.2652 20 17C20 16.7348 20.1054 16.4804 20.2929 16.2929C20.4804 16.1054 20.7348 16 21 16C21.2652 16 21.5196 16.1054 21.7071 16.2929C21.8946 16.4804 22 16.7348 22 17ZM17 21C17 21.2652 16.8946 21.5196 16.7071 21.7071C16.5196 21.8946 16.2652 22 16 22C15.7348 22 15.4804 21.8946 15.2929 21.7071C15.1054 21.5196 15 21.2652 15 21C15 20.7348 15.1054 20.4804 15.2929 20.2929C15.4804 20.1054 15.7348 20 16 20C16.2652 20 16.5196 20.1054 16.7071 20.2929C16.8946 20.4804 17 20.7348 17 21ZM17 17C17 17.2652 16.8946 17.5196 16.7071 17.7071C16.5196 17.8946 16.2652 18 16 18C15.7348 18 15.4804 17.8946 15.2929 17.7071C15.1054 17.5196 15 17.2652 15 17C15 16.7348 15.1054 16.4804 15.2929 16.2929C15.4804 16.1054 15.7348 16 16 16C16.2652 16 16.5196 16.1054 16.7071 16.2929C16.8946 16.4804 17 16.7348 17 17ZM12 21C12 21.2652 11.8946 21.5196 11.7071 21.7071C11.5196 21.8946 11.2652 22 11 22C10.7348 22 10.4804 21.8946 10.2929 21.7071C10.1054 21.5196 10 21.2652 10 21C10 20.7348 10.1054 20.4804 10.2929 20.2929C10.4804 20.1054 10.7348 20 11 20C11.2652 20 11.5196 20.1054 11.7071 20.2929C11.8946 20.4804 12 20.7348 12 21ZM12 17C12 17.2652 11.8946 17.5196 11.7071 17.7071C11.5196 17.8946 11.2652 18 11 18C10.7348 18 10.4804 17.8946 10.2929 17.7071C10.1054 17.5196 10 17.2652 10 17C10 16.7348 10.1054 16.4804 10.2929 16.2929C10.4804 16.1054 10.7348 16 11 16C11.2652 16 11.5196 16.1054 11.7071 16.2929C11.8946 16.4804 12 16.7348 12 17Z" fill="#429767"/>
</svg>
