<svg width="41" height="40" viewBox="0 0 41 40" fill="none" xmlns="http://www.w3.org/2000/svg">
<g clip-path="url(#clip0_52_1172)">
<path d="M31.0787 18.0562V29.2018C31.0787 31.6315 29.8011 32.8998 27.3434 32.8998H14.2354C11.7776 32.8998 10.5 31.6409 10.5 29.2018V18.0562C10.5 15.6151 11.7776 14.3582 14.2354 14.3582H17.5866V16.5892H14.3647C13.306 16.5892 12.7309 17.1353 12.7309 18.2416V29.0144C12.7309 30.1207 13.306 30.669 14.3647 30.669H27.2047C28.2541 30.669 28.8479 30.1207 28.8479 29.0144V18.2416C28.8479 17.1353 28.2541 16.5892 27.2047 16.5892H23.9829V14.3582H27.3434C29.8011 14.3582 31.0787 15.6245 31.0787 18.0562Z" fill="#677489"/>
<path d="M20.7845 23.7276C21.3623 23.7276 21.843 23.2574 21.843 22.7013V11.2724L21.7583 9.58597L22.357 10.309L23.9794 12.0444C24.1614 12.2491 24.4252 12.3566 24.6825 12.3566C25.2037 12.3566 25.6244 11.974 25.6244 11.4509C25.6244 11.1697 25.5231 10.9649 25.3317 10.7757L21.5823 7.16693C21.3135 6.90025 21.0667 6.81348 20.7845 6.81348C20.5117 6.81348 20.2668 6.90025 19.9867 7.16693L16.2466 10.7757C16.0573 10.9649 15.9446 11.1697 15.9446 11.4509C15.9446 11.974 16.3559 12.3566 16.8772 12.3566C17.1345 12.3566 17.4076 12.2491 17.5895 12.0444L19.2213 10.309L19.82 9.58597L19.7353 11.2724V22.7013C19.7353 23.2574 20.2067 23.7276 20.7845 23.7276Z" fill="#677489"/>
</g>
<defs>
<clipPath id="clip0_52_1172">
<rect width="21" height="30.8768" fill="white" transform="translate(10.5 5)"/>
</clipPath>
</defs>
</svg>
